#!OML:ASF F:\VICON\USERDATA\INSTALL\rory3\rory3.ASF
:FULLY-SPECIFIED
:DEGREES
2010
root 0.023507 17.466 0.166666 5.5901 2.70568 -1.99205
lowerback -5.97582 -0.399608 -0.438346
upperback -4.14708 -0.50582 1.86474
thorax -0.898613 -0.220526 2.13737
lowerneck -17.6207 -10.523 -14.26
upperneck 36.3793 -14.8438 8.91586
head 18.5856 -6.85756 3.33715
rclavicle -1.32192e-014 1.64991e-014
rhumerus -34.9352 -9.95293 -79.5422
rradius 20.0645
rwrist 32.243
rhand -11.4578 13.3238
rfingers 7.12502
rthumb 14.5795 -16.1438
lclavicle -1.32192e-014 1.64991e-014
lhumerus 328.93 1.82348 -269.281
lradius 16.0575
lwrist -25.3362
lhand -10.0718 22.3515
lfingers 7.12502
lthumb 15.9145 51.7176
rfemur 4.15609 10.1495 21.5401
rtibia -1.59028e-014
rfoot -7.54625 -12.3658
rtoes -12.6236
lfemur -5.37331 -22.8017 -16.0844
ltibia 15.1244
lfoot -15.2624 15.5191
ltoes -17.5781
2011
root 0.0203496 17.4663 0.16157 5.59301 2.77797 -1.99291
lowerback -5.93252 -0.402614 -0.390832
upperback -4.11256 -0.512185 1.86615
thorax -0.887065 -0.224909 2.11183
lowerneck -17.7026 -10.5145 -14.2846
upperneck 36.2703 -14.808 8.95763
head 18.5456 -6.83751 3.3632
rclavicle 5.29264e-015 -3.18055e-014
rhumerus -34.9363 -9.43707 -79.9094
rradius 20.2493
rwrist 31.7061
rhand -11.2265 13.3162
rfingers 7.12502
rthumb 14.8023 -16.1351
lclavicle 5.29264e-015 -3.18055e-014
lhumerus 329.074 2.16917 -269.618
lradius 15.8999
lwrist -25.9886
lhand -10.3125 22.1688
lfingers 7.12502
lthumb 15.6827 51.5532
rfemur 4.14431 10.078 21.5551
rtibia -4.77083e-015
rfoot -7.57288 -12.3432
rtoes -12.6429
lfemur -5.41675 -22.7772 -16.0472
ltibia 15.1286
lfoot -15.1679 15.4765
ltoes -17.9506
2012
root 0.0176494 17.4665 0.156692 5.57764 2.86645 -2.03027
lowerback -5.8454 -0.4075 -0.301732
upperback -4.08781 -0.522431 1.87483
thorax -0.910071 -0.231682 2.07054
lowerneck -17.7232 -10.5216 -14.3781
upperneck 36.1033 -14.812 9.08886
head 18.4841 -6.83374 3.43376
rclavicle 5.96354e-016 -1.78906e-015
rhumerus -34.9279 -9.16509 -80.157
rradius 20.315
rwrist 31.5517
rhand -11.0715 13.4175
rfingers 7.12502
rthumb 14.9516 -16.0228
lclavicle 5.96354e-016 -1.78906e-015
lhumerus 329.261 2.47193 -269.954
lradius 15.656
lwrist -26.5325
lhand -10.7843 21.4019
lfingers 7.12502
lthumb 15.2283 50.8214
rfemur 4.14881 9.99346 21.6172
rtibia -1.43125e-014
rfoot -7.55996 -12.3574
rtoes -12.8418
lfemur -5.43045 -22.7506 -15.9783
ltibia 15.1215
lfoot -15.1718 15.3659
ltoes -17.9349
2013
root 0.01501 17.4671 0.151795 5.57685 2.92015 -1.95579
lowerback -5.79659 -0.376873 -0.323276
upperback -4.05827 -0.48083 1.83047
thorax -0.908403 -0.211113 2.03912
lowerneck -17.7187 -10.5543 -14.4296
upperneck 35.9483 -14.8658 9.19331
head 18.4239 -6.84814 3.47351
rclavicle -6.26172e-015 -1.80894e-014
rhumerus -34.939 -8.85616 -80.4762
rradius 20.3743
rwrist 31.2255
rhand -11.1714 13.3689
rfingers 7.12502
rthumb 14.8553 -16.0785
lclavicle -6.26172e-015 -1.80894e-014
lhumerus 329.495 2.71085 -270.29
lradius 15.3645
lwrist -27.0861
lhand -11.1106 20.9565
lfingers 7.12502
lthumb 14.9139 50.3996
rfemur 4.1377 9.93336 21.5448
rtibia -9.54166e-015
rfoot -7.56418 -12.3701
rtoes -12.7864
lfemur -5.44333 -22.8202 -16.0387
ltibia 15.0995
lfoot -15.1263 15.2795
ltoes -17.0984
2014
root 0.0113327 17.4671 0.145242 5.55652 2.97094 -1.93946
lowerback -5.7766 -0.35167 -0.301774
upperback -3.9772 -0.449256 1.81071
thorax -0.837308 -0.196805 2.00789
lowerneck -17.7866 -10.5849 -14.447
upperneck 35.8101 -14.906 9.26627
head 18.3814 -6.85338 3.49355
rclavicle -8.10048e-015 2.78299e-014
rhumerus -34.8968 -8.5339 -80.8462
rradius 20.4797
rwrist 30.8186
rhand -11.167 13.2369
rfingers 7.12502
rthumb 14.8597 -16.2102
lclavicle -8.10048e-015 2.78299e-014
lhumerus 329.73 3.04538 -270.631
lradius 15.1328
lwrist -27.6816
lhand -11.4246 20.8344
lfingers 7.12502
lthumb 14.6115 50.2997
rfemur 4.14501 9.88124 21.5411
rtibia -4.77083e-015
rfoot -7.53078 -12.3425
rtoes -12.9388
lfemur -5.45227 -22.8729 -16.0301
ltibia 15.0706
lfoot -15.0641 15.2322
ltoes -16.5962
2015
root 0.00797347 17.4676 0.138786 5.5319 3.02522 -1.92913
lowerback -5.74434 -0.349867 -0.320904
upperback -3.88955 -0.447038 1.82839
thorax -0.764669 -0.196056 2.03668
lowerneck -17.8732 -10.5973 -14.4766
upperneck 35.6683 -14.9093 9.33977
head 18.3366 -6.84485 3.52411
rclavicle 5.66536e-015 -1.19271e-014
rhumerus -34.8197 -8.18169 -81.1878
rradius 20.5468
rwrist 30.6518
rhand -11.2099 13.1676
rfingers 7.12502
rthumb 14.8182 -16.2826
lclavicle 5.66536e-015 -1.19271e-014
lhumerus 329.916 2.91968 -270.635
lradius 14.9686
lwrist -27.7013
lhand -11.5938 21.3301
lfingers 7.12502
lthumb 14.4484 50.8071
rfemur 4.15743 9.82607 21.5438
rtibia 9.54166e-015
rfoot -7.54351 -12.3146
rtoes -12.6373
lfemur -5.43913 -22.8977 -16.0191
ltibia 15.0191
lfoot -15.006 15.2191
ltoes -16.9531
2016
root 0.00587389 17.4684 0.133675 5.54263 3.10057 -1.87017
lowerback -5.73711 -0.358535 -0.363329
upperback -3.83561 -0.457382 1.83639
thorax -0.712346 -0.200999 2.06801
lowerneck -17.9518 -10.6057 -14.5683
upperneck 35.5699 -14.8964 9.42571
head 18.3212 -6.83714 3.57644
rclavicle 6.80837e-015 -2.56432e-014
rhumerus -34.7784 -7.59357 -81.574
rradius 20.6217
rwrist 30.5041
rhand -11.3595 13.1582
rfingers 7.12502
rthumb 14.6741 -16.3026
lclavicle 6.80837e-015 -2.56432e-014
lhumerus 330.043 2.81448 -270.617
lradius 14.8112
lwrist -27.7126
lhand -11.472 21.7625
lfingers 7.12502
lthumb 14.5658 51.2311
rfemur 4.1403 9.746 21.484
rtibia 0
rfoot -7.56648 -12.294
rtoes -12.2526
lfemur -5.46456 -22.9548 -16.0522
ltibia 14.979
lfoot -14.8483 15.3302
ltoes -17.9329
2017
root 0.00370513 17.4682 0.129069 5.57058 3.17274 -1.83997
lowerback -5.75338 -0.41692 -0.429438
upperback -3.79582 -0.532831 1.90257
thorax -0.658351 -0.237498 2.16924
lowerneck -18.0476 -10.5594 -14.6237
upperneck 35.4985 -14.7766 9.43057
head 18.29 -6.7921 3.61147
rclavicle 3.85145e-015 2.44505e-014
rhumerus -34.7483 -6.99909 -81.9013
rradius 20.638
rwrist 30.4402
rhand -11.5098 13.2719
rfingers 7.12502
rthumb 14.5294 -16.1994
lclavicle 3.85145e-015 2.44505e-014
lhumerus 330.184 2.87997 -270.598
lradius 14.5683
lwrist -27.5697
lhand -11.7463 21.606
lfingers 7.12502
lthumb 14.3014 51.0935
rfemur 4.10252 9.67234 21.4615
rtibia 6.36111e-015
rfoot -7.54426 -12.3111
rtoes -12.3747
lfemur -5.50022 -23.004 -16.0416
ltibia 14.9174
lfoot -14.7719 15.3342
ltoes -18.0485
2018
root 0.00135145 17.4701 0.124736 5.59901 3.21243 -1.83648
lowerback -5.73547 -0.462058 -0.427871
upperback -3.79381 -0.592965 1.92774
thorax -0.663554 -0.267369 2.19133
lowerneck -18.1213 -10.5045 -14.5757
upperneck 35.4583 -14.6741 9.39579
head 18.2561 -6.74643 3.60854
rclavicle 7.62836e-015 1.86858e-014
rhumerus -34.8127 -6.53199 -82.2608
rradius 20.6636
rwrist 30.4431
rhand -11.7271 13.4238
rfingers 7.12502
rthumb 14.32 -16.0624
lclavicle 7.62836e-015 1.86858e-014
lhumerus 330.243 2.90071 -270.666
lradius 14.3868
lwrist -27.3063
lhand -12.1111 21.5562
lfingers 7.12502
lthumb 13.9499 51.0682
rfemur 4.06168 9.63372 21.4617
rtibia 1.59028e-015
rfoot -7.56655 -12.2876
rtoes -12.3325
lfemur -5.53015 -23.0184 -16.0088
ltibia 14.8449
lfoot -14.7984 15.2803
ltoes -17.8581
2019
root -0.000330078 17.4707 0.120478 5.59905 3.20693 -1.77032
lowerback -5.6648 -0.484515 -0.483462
upperback -3.79142 -0.620126 1.92046
thorax -0.698751 -0.279901 2.21422
lowerneck -18.092 -10.4566 -14.5424
upperneck 35.3053 -14.5872 9.38601
head 18.1399 -6.70986 3.61606
rclavicle 1.16786e-015 -1.51076e-014
rhumerus -34.8694 -6.05753 -82.673
rradius 20.6893
rwrist 30.3538
rhand -12.0503 13.5234
rfingers 7.12502
rthumb 14.0086 -15.9845
lclavicle 1.16786e-015 -1.51076e-014
lhumerus 330.237 2.86786 -270.762
lradius 14.3563
lwrist -27.0932
lhand -12.144 21.9062
lfingers 7.12502
lthumb 13.9182 51.4203
rfemur 4.05143 9.63334 21.3895
rtibia 3.18055e-015
rfoot -7.55609 -12.2858
rtoes -12.2008
lfemur -5.51881 -22.9981 -16.0791
ltibia 14.7879
lfoot -14.6133 15.3316
ltoes -18.5631
2020
root -0.000733793 17.4714 0.116223 5.58795 3.17361 -1.70353
lowerback -5.5997 -0.473643 -0.539781
upperback -3.76529 -0.603312 1.91776
thorax -0.708205 -0.270662 2.24428
lowerneck -17.997 -10.427 -14.503
upperneck 35.0366 -14.4988 9.31796
head 17.9346 -6.68146 3.59401
rclavicle 3.40419e-015 -2.42517e-014
rhumerus -34.8725 -5.45163 -83.1096
rradius 20.7794
rwrist 30.2333
rhand -12.0028 13.3457
rfingers 7.12502
rthumb 14.0543 -16.1591
lclavicle 3.40419e-015 -2.42517e-014
lhumerus 330.271 2.80858 -270.761
lradius 14.2065
lwrist -26.9533
lhand -12.209 22.1434
lfingers 7.12502
lthumb 13.8556 51.6619
rfemur 4.03951 9.66099 21.3075
rtibia 7.95139e-015
rfoot -7.56027 -12.2764
rtoes -12.2293
lfemur -5.50879 -22.9513 -16.162
ltibia 14.7856
lfoot -14.5517 15.3168
ltoes -18.6296
2021
root -0.000528898 17.4729 0.110692 5.58617 3.18224 -1.73908
lowerback -5.5373 -0.44368 -0.459294
upperback -3.7399 -0.566918 1.92825
thorax -0.718854 -0.253814 2.21187
lowerneck -17.9945 -10.4134 -14.4138
upperneck 34.8778 -14.4399 9.2111
head 17.8107 -6.65925 3.53886
rclavicle 1.93815e-015 -2.0276e-014
rhumerus -34.8663 -4.98664 -83.4317
rradius 20.8845
rwrist 30.4006
rhand -11.6637 13.2641
rfingers 7.12502
rthumb 14.3811 -16.2178
lclavicle 1.93815e-015 -2.0276e-014
lhumerus 330.315 2.68923 -270.722
lradius 14.0051
lwrist -26.8193
lhand -12.618 22.0722
lfingers 7.12502
lthumb 13.4614 51.6172
rfemur 4.01736 9.65689 21.3406
rtibia -1.59028e-015
rfoot -7.54313 -12.257
rtoes -12.2902
lfemur -5.55085 -22.9331 -16.1083
ltibia 14.8148
lfoot -14.6568 15.2437
ltoes -18.1465
2022
root -0.00133691 17.4736 0.103408 5.59523 3.19339 -1.88588
lowerback -5.45605 -0.39273 -0.2647
upperback -3.72727 -0.506893 1.95795
thorax -0.754725 -0.226665 2.13636
lowerneck -18.033 -10.4226 -14.3485
upperneck 34.8036 -14.4504 9.18771
head 17.7705 -6.65559 3.51097
rclavicle -9.39258e-015 -2.42517e-014
rhumerus -34.9175 -4.59822 -83.7484
rradius 20.9961
rwrist 30.4997
rhand -11.4807 13.2628
rfingers 7.12502
rthumb 14.5574 -16.2064
lclavicle -9.39258e-015 -2.42517e-014
lhumerus 330.383 2.53863 -270.652
lradius 13.837
lwrist -26.7664
lhand -13.1912 21.908
lfingers 7.12502
lthumb 12.9088 51.4887
rfemur 3.96868 9.66187 21.4996
rtibia -3.49861e-014
rfoot -7.49802 -12.2601
rtoes -12.3573
lfemur -5.62956 -22.9043 -15.9236
ltibia 14.869
lfoot -14.7926 15.1792
ltoes -17.7836
2023
root -0.00330224 17.4733 0.098227 5.54988 3.20319 -1.92638
lowerback -5.36479 -0.369808 -0.22463
upperback -3.67862 -0.478054 1.98326
thorax -0.75656 -0.212928 2.14151
lowerneck -18.0888 -10.4264 -14.3091
upperneck 34.7513 -14.4543 9.18959
head 17.752 -6.64887 3.50073
rclavicle 7.92654e-015 7.95139e-015
rhumerus -34.9227 -4.13916 -84.1086
rradius 21.0722
rwrist 30.3162
rhand -11.2251 13.1835
rfingers 7.12502
rthumb 14.8037 -16.2678
lclavicle 7.92654e-015 7.95139e-015
lhumerus 330.424 2.43841 -270.601
lradius 13.7699
lwrist -26.7296
lhand -13.368 22.055
lfingers 7.12502
lthumb 12.7384 51.6464
rfemur 3.99582 9.65563 21.5511
rtibia 1.74931e-014
rfoot -7.49476 -12.2488
rtoes -12.4572
lfemur -5.64401 -22.8902 -15.8865
ltibia 14.9513
lfoot -14.8755 15.1459
ltoes -17.4989
